<svg width="64" height="64" viewBox="0 0 64 64" fill="none" xmlns="http://www.w3.org/2000/svg">
  <!-- Background circle -->
  <circle cx="32" cy="32" r="30" fill="#C0392B"/>
  <circle cx="32" cy="32" r="28" fill="#1A1A1A" stroke="#27AE60" stroke-width="2"/>

  <!-- Simplified fist icon -->
  <g transform="translate(18, 16)">
    <path d="M14 10 L14 5 L11 2 L8 2 L6 4 L6 6 L5 6 L4 5 L2 5 L1 6 L1 8 L2 9 L2 11 L1 12 L1 15 L3 17 L8 19 L11 19 L14 17 L15 15 L15 12 L14 10 Z"
          fill="#27AE60"
          stroke="#F9F9F9"
          stroke-width="1.5"
          stroke-linejoin="round"/>

    <!-- Thumb -->
    <path d="M14 10 L17 9 L18 11 L18 14 L17 15 L14 15"
          fill="#27AE60"
          stroke="#F9F9F9"
          stroke-width="1.5"
          stroke-linejoin="round"/>
  </g>
</svg>
