<svg width="200" height="60" viewBox="0 0 200 60" fill="none" xmlns="http://www.w3.org/2000/svg">
  <!-- Fist icon on left -->
  <g transform="translate(5, 10)">
    <circle cx="20" cy="20" r="18" fill="#1A1A1A" stroke="#C0392B" stroke-width="2"/>
    <circle cx="20" cy="20" r="15" fill="none" stroke="#27AE60" stroke-width="1" stroke-dasharray="2 2"/>

    <!-- Fist -->
    <path d="M20 15 L20 10 L17 8 L14 8 L12 10 L12 12 L11 12 L10 11 L8 11 L7 12 L7 14 L8 15 L8 17 L7 18 L7 21 L9 23 L14 25 L17 25 L20 23 L21 21 L21 18 L20 15 Z"
          fill="#C0392B"
          stroke="#F9F9F9"
          stroke-width="1"/>
    <path d="M20 15 L23 14 L24 16 L24 19 L23 20 L20 21"
          fill="#C0392B"
          stroke="#F9F9F9"
          stroke-width="1"/>
  </g>

  <!-- MORENGY text -->
  <text x="55" y="38" font-family="Montserrat, sans-serif" font-size="28" font-weight="900" fill="#C0392B">MORE</text>
  <text x="135" y="38" font-family="Montserrat, sans-serif" font-size="28" font-weight="900" fill="#27AE60">NGY</text>

  <!-- Subtitle -->
  <text x="55" y="50" font-family="Poppins, sans-serif" font-size="8" font-weight="600" fill="#F9F9F9" letter-spacing="1">THE SPIRIT OF THE NORTH</text>

  <!-- Decorative elements -->
  <rect x="52" y="42" width="138" height="1" fill="#C0392B" opacity="0.3"/>
</svg>
