<svg width="100" height="100" xmlns="http://www.w3.org/2000/svg">
  <defs>
    <pattern id="malagasy-pattern" x="0" y="0" width="100" height="100" patternUnits="userSpaceOnUse">
      <!-- Diamond shapes -->
      <path d="M50 25 L60 35 L50 45 L40 35 Z" fill="#C0392B" opacity="0.1"/>
      <path d="M25 50 L35 60 L25 70 L15 60 Z" fill="#27AE60" opacity="0.1"/>
      <path d="M75 50 L85 60 L75 70 L65 60 Z" fill="#C0392B" opacity="0.1"/>
      <path d="M50 75 L60 85 L50 95 L40 85 Z" fill="#27AE60" opacity="0.1"/>

      <!-- Connecting lines -->
      <line x1="50" y1="45" x2="40" y2="60" stroke="#F9F9F9" stroke-width="0.5" opacity="0.05"/>
      <line x1="60" y1="60" x2="50" y2="75" stroke="#F9F9F9" stroke-width="0.5" opacity="0.05"/>

      <!-- Small dots -->
      <circle cx="50" cy="50" r="2" fill="#F9F9F9" opacity="0.08"/>
      <circle cx="25" cy="25" r="1.5" fill="#C0392B" opacity="0.1"/>
      <circle cx="75" cy="25" r="1.5" fill="#27AE60" opacity="0.1"/>
      <circle cx="25" cy="75" r="1.5" fill="#27AE60" opacity="0.1"/>
      <circle cx="75" cy="75" r="1.5" fill="#C0392B" opacity="0.1"/>
    </pattern>
  </defs>
  <rect width="100" height="100" fill="url(#malagasy-pattern)"/>
</svg>
